<?xml version="1.0" encoding="UTF-8" standalone="no"?>
<!DOCTYPE svg PUBLIC "-//W3C//DTD SVG 1.1//EN" "http://www.w3.org/Graphics/SVG/1.1/DTD/svg11.dtd">
<svg width="100%" height="100%" viewBox="0 0 1033 1033" version="1.1" xmlns="http://www.w3.org/2000/svg" xmlns:xlink="http://www.w3.org/1999/xlink" xml:space="preserve" xmlns:affinity="https://www.affinity.studio/" style="fill-rule:evenodd;clip-rule:evenodd;stroke-linejoin:round;">
    <g transform="matrix(1,0,0,1,-21.732421,-21.424036)">
        <g id="druid" transform="matrix(2.008108,0,0,2.008108,23.673004,23.364619)">
            <path d="M256,1.034C256,1.034 232.591,54.668 219.091,81.513C216.024,87.687 219.091,87.717 223.987,87.685C245.33,87.706 266.67,87.731 288.013,87.685C292.909,87.717 295.976,87.687 292.909,81.513C279.409,54.668 256,1.034 256,1.034ZM75.712,75.712C75.712,75.712 97.083,130.189 106.52,158.718C108.717,165.251 110.908,163.106 114.348,159.622C129.454,144.545 144.563,129.471 159.622,114.348C163.106,110.908 165.251,108.717 158.718,106.52C130.189,97.083 75.712,75.712 75.712,75.712ZM436.288,75.712C436.288,75.712 381.811,97.083 353.282,106.52C346.749,108.717 348.894,110.908 352.378,114.348C367.455,129.454 382.529,144.563 397.652,159.622C401.092,163.106 403.283,165.251 405.48,158.718C414.917,130.189 436.288,75.712 436.288,75.712ZM256,122.642C182.349,122.642 122.642,182.349 122.642,256C122.642,329.651 182.349,389.358 256,389.358C329.651,389.358 389.358,329.651 389.358,256C389.358,182.349 329.651,122.642 256,122.642ZM243.181,138.575C442.589,145.839 378.904,383.3 256.985,374.511C303.614,315.059 342.189,213.769 243.181,138.575ZM81.513,219.091C54.668,232.591 1.034,256 1.034,256C1.034,256 54.668,279.409 81.513,292.909C87.687,295.976 87.717,292.909 87.685,288.013C87.706,266.67 87.731,245.33 87.685,223.987C87.717,219.084 87.653,216.041 81.513,219.091ZM424.315,223.987C424.294,245.33 424.269,266.67 424.315,288.013C424.284,292.909 424.314,295.976 430.487,292.909C457.332,279.409 510.966,256 510.966,256C510.966,256 457.332,232.591 430.487,219.091C424.346,216.041 424.283,219.084 424.315,223.987ZM106.52,353.282C97.083,381.811 75.712,436.288 75.712,436.288C75.712,436.288 130.189,414.917 158.718,405.48C165.251,403.283 163.106,401.092 159.622,397.652C144.545,382.546 129.471,367.437 114.348,352.378C110.864,348.85 108.7,346.799 106.52,353.282ZM397.652,352.378C382.546,367.455 367.437,382.529 352.378,397.652C348.894,401.092 346.749,403.283 353.282,405.48C381.811,414.917 436.288,436.288 436.288,436.288C436.288,436.288 414.917,381.811 405.48,353.282C403.3,346.799 401.136,348.85 397.652,352.378ZM223.987,424.315C219.091,424.284 216.024,424.314 219.091,430.487C232.591,457.332 256,510.966 256,510.966C256,510.966 279.409,457.332 292.909,430.487C295.976,424.313 292.909,424.283 288.013,424.315C266.67,424.294 245.33,424.269 223.987,424.315Z" style="fill:rgb(155,204,52);fill-rule:nonzero;stroke:rgb(125,163,41);stroke-width:4px;"/>
        </g>
    </g>
</svg>
