<?xml version="1.0" encoding="UTF-8" standalone="no"?>
<!DOCTYPE svg PUBLIC "-//W3C//DTD SVG 1.1//EN" "http://www.w3.org/Graphics/SVG/1.1/DTD/svg11.dtd">
<svg width="100%" height="100%" viewBox="0 0 708 1058" version="1.1" xmlns="http://www.w3.org/2000/svg" xmlns:xlink="http://www.w3.org/1999/xlink" xml:space="preserve" xmlns:affinity="https://www.affinity.studio/" style="fill-rule:evenodd;clip-rule:evenodd;stroke-linecap:square;">
    <g transform="matrix(1,0,0,1,-183.750188,-9.614587)">
        <g id="luminary" transform="matrix(2.011098,0,0,2.011098,22.701098,23.35732)">
            <path d="M109.027,266.584C130.205,257.869 128.873,258.532 147.148,253.144L256,244.632L364.852,253.144C383.127,258.532 381.795,257.869 402.973,266.584M109.027,266.584C130.205,275.298 128.873,274.635 147.148,280.023L256,288.535L364.852,280.023C383.127,274.635 381.795,275.298 402.973,266.584M162.733,1.413C162.733,1.413 59.434,42.245 96.263,176.028C117.982,139.098 147.147,158.536 147.147,173.89L147.147,246.871C163.259,245.612 179.372,244.353 195.484,243.093L195.484,162.905L225.552,155.847L225.552,240.741C235.646,239.952 245.74,239.164 255.834,238.377L255.9,238.373L256.009,238.365C266.155,239.157 276.301,239.95 286.448,240.743L286.448,155.847L316.516,162.905L316.516,243.095C332.628,244.355 348.741,245.615 364.853,246.875L364.853,173.89C364.853,158.536 394.018,139.098 415.737,176.028C452.566,42.245 349.267,1.413 349.267,1.413C349.267,1.413 345.837,41.885 344.635,44.647C364.111,72.711 348.111,89.556 345.969,91.556L283.009,91.556C281.144,104.452 279.278,117.348 277.415,130.245L234.585,130.245C232.722,117.348 230.856,104.452 228.991,91.556L166.031,91.556C163.889,89.556 147.889,72.711 167.365,44.647C166.163,41.885 162.733,1.413 162.733,1.413L162.733,1.413ZM256,54.301L236.654,80.549L242.689,122.302L269.311,122.302L275.346,80.549L256,54.301ZM147.147,286.292L147.147,330.21C147.147,339.032 147.148,346.944 135.379,347.097C129.143,347.015 108.343,344.763 93.163,343.142C109.89,358.454 137.609,394.942 147.147,408.4C161.012,427.964 142.567,434.191 132.616,439.203L236.377,439.203L236.377,452.183L216.332,452.183C220.966,478.432 233.101,490.309 256,510.587C278.899,490.309 291.034,478.432 295.668,452.183L275.623,452.183L275.623,439.203L379.384,439.203C369.433,434.191 350.988,427.964 364.853,408.4C374.391,394.942 402.11,358.454 418.837,343.142C403.657,344.763 382.857,347.015 376.621,347.097C364.851,346.944 364.853,339.032 364.853,330.21L364.853,286.296C348.741,287.555 332.628,288.815 316.516,290.074L316.516,353.738L286.448,357.341L286.448,292.424C276.298,293.217 266.149,294.011 256,294.803C245.851,294.01 235.702,293.218 225.552,292.424L225.552,357.341L195.484,353.738L195.484,290.072C179.372,288.812 163.259,287.552 147.147,286.292Z" style="fill:rgb(54,170,226);fill-rule:nonzero;stroke:rgb(23,113,156);stroke-width:4px;"/>
        </g>
    </g>
</svg>
